# xmcd
# 
# Track frame offsets:
#     150
#     20245
#     36275
#     52445
#     67225
#     88375
#     115800
#     134350
#     151233
#     169293
# 
# Disc length: 2370
# 
# Revision: 7
# Processed by: cddbd v1.5.2PL0 Copyright (c) Steve Scherf et al.
# Submitted via: fre:ac v1.0.27
# 
DISCID=9b09400a
DTITLE=Various Artist - Pretty In Pink (The Original Motion Picture Soundtrack)
DYEAR=1986
DGENRE=English Rock
TTITLE0=Orchestral Manoeuvres In The Dark - If You Leave
TTITLE1=Suzanne Vega feat. Joe Jackson on Piano - Left Of Center
TTITLE2=Jesse Johnson - Get To Know Ya
TTITLE3=INXS - Do Wot You Do
TTITLE4=The Psychedelic Furs - Pretty In Pink
TTITLE5=New Order - Shell-Shock
TTITLE6=Belouis Some - Round, Round
TTITLE7=Danny Hutton Hitters - Wouldn't It Be Good
TTITLE8=Echo and The Bunnymen - Bring On The Dancing Horses
TTITLE9=The Smiths - Please Please Please Let Me Get What I Want
EXTD=
EXTT0=
EXTT1=
EXTT2=
EXTT3=
EXTT4=
EXTT5=
EXTT6=
EXTT7=
EXTT8=
EXTT9=
PLAYORDER=
